<svg xmlns="http://www.w3.org/2000/svg" xmlns:xlink="http://www.w3.org/1999/xlink" width="400" zoomAndPan="magnify" viewBox="0 0 300 89.999999" height="120" preserveAspectRatio="xMidYMid meet" version="1.0"><defs><g/></defs><path fill="#0793f6" d="M 36.175781 51.632812 L 40.882812 46.84375 C 44.71875 42.941406 44.71875 36.609375 40.882812 32.710938 C 37.046875 28.808594 30.820312 28.808594 26.984375 32.710938 C 26.984375 32.710938 11.511719 48.441406 11.511719 48.441406 C 7.675781 52.339844 7.675781 58.675781 11.511719 62.574219 C 15.347656 66.472656 21.574219 66.472656 25.410156 62.574219 C 26.507812 61.460938 26.507812 59.652344 25.410156 58.535156 C 24.316406 57.421875 22.535156 57.421875 21.441406 58.535156 C 19.796875 60.207031 17.125 60.207031 15.480469 58.535156 C 13.835938 56.863281 13.835938 54.148438 15.480469 52.476562 C 15.480469 52.476562 30.953125 36.746094 30.953125 36.746094 C 32.597656 35.074219 35.269531 35.074219 36.914062 36.746094 C 38.558594 38.417969 38.558594 41.132812 36.914062 42.804688 C 36.914062 42.804688 32.203125 47.59375 32.203125 47.59375 C 31.109375 48.707031 31.109375 50.515625 32.203125 51.632812 C 33.300781 52.746094 35.078125 52.746094 36.175781 51.632812 Z M 36.175781 51.632812 " fill-opacity="1" fill-rule="evenodd"/><path fill="#077cf6" d="M 29.953125 39.484375 L 26.324219 43.171875 C 22.488281 47.070312 22.488281 53.40625 26.324219 57.304688 C 30.160156 61.203125 36.390625 61.203125 40.226562 57.304688 C 40.226562 57.304688 55.699219 41.574219 55.699219 41.574219 C 59.535156 37.671875 59.535156 31.339844 55.699219 27.441406 C 51.863281 23.539062 45.632812 23.539062 41.796875 27.441406 C 40.703125 28.554688 40.703125 30.363281 41.796875 31.476562 C 42.894531 32.589844 44.671875 32.589844 45.769531 31.476562 C 47.414062 29.804688 50.082031 29.804688 51.726562 31.476562 C 53.371094 33.148438 53.371094 35.863281 51.726562 37.535156 C 51.726562 37.535156 36.253906 53.265625 36.253906 53.265625 C 34.609375 54.9375 31.941406 54.9375 30.296875 53.265625 C 28.652344 51.59375 28.652344 48.878906 30.296875 47.207031 C 30.296875 47.207031 33.925781 43.519531 33.925781 43.519531 C 35.019531 42.40625 35.019531 40.597656 33.925781 39.484375 C 32.828125 38.367188 31.050781 38.367188 29.953125 39.484375 Z M 29.953125 39.484375 " fill-opacity="1" fill-rule="evenodd"/><g fill="#393be5" fill-opacity="1"><g transform="translate(67.618102, 52.105208)"><g><path d="M 6.53125 -19.953125 L 6.53125 -8.015625 C 6.53125 -6.816406 6.820312 -5.894531 7.40625 -5.25 C 8 -4.613281 8.863281 -4.296875 10 -4.296875 C 11.132812 -4.296875 12.003906 -4.613281 12.609375 -5.25 C 13.222656 -5.894531 13.53125 -6.816406 13.53125 -8.015625 L 13.53125 -19.953125 L 18.390625 -19.953125 L 18.390625 -8.046875 C 18.390625 -6.265625 18.007812 -4.753906 17.25 -3.515625 C 16.488281 -2.285156 15.46875 -1.359375 14.1875 -0.734375 C 12.914062 -0.109375 11.492188 0.203125 9.921875 0.203125 C 8.347656 0.203125 6.941406 -0.101562 5.703125 -0.71875 C 4.460938 -1.34375 3.476562 -2.273438 2.75 -3.515625 C 2.03125 -4.753906 1.671875 -6.265625 1.671875 -8.046875 L 1.671875 -19.953125 Z M 6.53125 -19.953125 "/></g></g></g><g fill="#393be5" fill-opacity="1"><g transform="translate(87.654908, 52.105208)"><g><path d="M 11.9375 0 L 7.78125 -7.53125 L 6.625 -7.53125 L 6.625 0 L 1.765625 0 L 1.765625 -19.953125 L 9.921875 -19.953125 C 11.492188 -19.953125 12.832031 -19.675781 13.9375 -19.125 C 15.050781 -18.570312 15.878906 -17.816406 16.421875 -16.859375 C 16.972656 -15.910156 17.25 -14.847656 17.25 -13.671875 C 17.25 -12.347656 16.875 -11.164062 16.125 -10.125 C 15.375 -9.082031 14.269531 -8.34375 12.8125 -7.90625 L 17.421875 0 Z M 6.625 -10.96875 L 9.640625 -10.96875 C 10.523438 -10.96875 11.191406 -11.1875 11.640625 -11.625 C 12.085938 -12.0625 12.3125 -12.675781 12.3125 -13.46875 C 12.3125 -14.226562 12.085938 -14.828125 11.640625 -15.265625 C 11.191406 -15.703125 10.523438 -15.921875 9.640625 -15.921875 L 6.625 -15.921875 Z M 6.625 -10.96875 "/></g></g></g><g fill="#393be5" fill-opacity="1"><g transform="translate(106.185406, 52.105208)"><g><path d="M 6.625 -3.75 L 12.984375 -3.75 L 12.984375 0 L 1.765625 0 L 1.765625 -19.953125 L 6.625 -19.953125 Z M 6.625 -3.75 "/></g></g></g><g fill="#393be5" fill-opacity="1"><g transform="translate(119.742245, 52.105208)"><g/></g></g><g fill="#393be5" fill-opacity="1"><g transform="translate(125.767511, 52.105208)"><g><path d="M 8.984375 0.203125 C 7.523438 0.203125 6.21875 -0.03125 5.0625 -0.5 C 3.90625 -0.976562 2.976562 -1.679688 2.28125 -2.609375 C 1.59375 -3.535156 1.226562 -4.65625 1.1875 -5.96875 L 6.359375 -5.96875 C 6.441406 -5.226562 6.695312 -4.660156 7.125 -4.265625 C 7.5625 -3.878906 8.132812 -3.6875 8.84375 -3.6875 C 9.5625 -3.6875 10.128906 -3.851562 10.546875 -4.1875 C 10.960938 -4.519531 11.171875 -4.984375 11.171875 -5.578125 C 11.171875 -6.066406 11.003906 -6.472656 10.671875 -6.796875 C 10.335938 -7.117188 9.925781 -7.382812 9.4375 -7.59375 C 8.957031 -7.800781 8.273438 -8.035156 7.390625 -8.296875 C 6.097656 -8.691406 5.046875 -9.085938 4.234375 -9.484375 C 3.421875 -9.890625 2.71875 -10.476562 2.125 -11.25 C 1.539062 -12.03125 1.25 -13.046875 1.25 -14.296875 C 1.25 -16.148438 1.921875 -17.601562 3.265625 -18.65625 C 4.609375 -19.707031 6.363281 -20.234375 8.53125 -20.234375 C 10.726562 -20.234375 12.5 -19.707031 13.84375 -18.65625 C 15.1875 -17.601562 15.90625 -16.140625 16 -14.265625 L 10.75 -14.265625 C 10.707031 -14.910156 10.46875 -15.414062 10.03125 -15.78125 C 9.59375 -16.15625 9.035156 -16.34375 8.359375 -16.34375 C 7.765625 -16.34375 7.285156 -16.1875 6.921875 -15.875 C 6.566406 -15.5625 6.390625 -15.113281 6.390625 -14.53125 C 6.390625 -13.882812 6.691406 -13.378906 7.296875 -13.015625 C 7.910156 -12.660156 8.859375 -12.273438 10.140625 -11.859375 C 11.429688 -11.421875 12.476562 -11 13.28125 -10.59375 C 14.09375 -10.195312 14.789062 -9.617188 15.375 -8.859375 C 15.957031 -8.109375 16.25 -7.132812 16.25 -5.9375 C 16.25 -4.800781 15.960938 -3.769531 15.390625 -2.84375 C 14.816406 -1.914062 13.976562 -1.175781 12.875 -0.625 C 11.78125 -0.0703125 10.484375 0.203125 8.984375 0.203125 Z M 8.984375 0.203125 "/></g></g></g><g fill="#393be5" fill-opacity="1"><g transform="translate(143.246439, 52.105208)"><g><path d="M 19.046875 -19.953125 L 19.046875 0 L 14.1875 0 L 14.1875 -8.21875 L 6.625 -8.21875 L 6.625 0 L 1.765625 0 L 1.765625 -19.953125 L 6.625 -19.953125 L 6.625 -12.140625 L 14.1875 -12.140625 L 14.1875 -19.953125 Z M 19.046875 -19.953125 "/></g></g></g><g fill="#393be5" fill-opacity="1"><g transform="translate(164.022213, 52.105208)"><g><path d="M 11.203125 0.203125 C 9.328125 0.203125 7.601562 -0.234375 6.03125 -1.109375 C 4.46875 -1.984375 3.226562 -3.203125 2.3125 -4.765625 C 1.394531 -6.328125 0.9375 -8.082031 0.9375 -10.03125 C 0.9375 -11.976562 1.394531 -13.726562 2.3125 -15.28125 C 3.226562 -16.84375 4.46875 -18.054688 6.03125 -18.921875 C 7.601562 -19.796875 9.328125 -20.234375 11.203125 -20.234375 C 13.078125 -20.234375 14.796875 -19.796875 16.359375 -18.921875 C 17.921875 -18.054688 19.148438 -16.84375 20.046875 -15.28125 C 20.953125 -13.726562 21.40625 -11.976562 21.40625 -10.03125 C 21.40625 -8.082031 20.945312 -6.328125 20.03125 -4.765625 C 19.125 -3.203125 17.894531 -1.984375 16.34375 -1.109375 C 14.789062 -0.234375 13.078125 0.203125 11.203125 0.203125 Z M 11.203125 -4.234375 C 12.785156 -4.234375 14.054688 -4.765625 15.015625 -5.828125 C 15.972656 -6.890625 16.453125 -8.289062 16.453125 -10.03125 C 16.453125 -11.789062 15.972656 -13.195312 15.015625 -14.25 C 14.054688 -15.300781 12.785156 -15.828125 11.203125 -15.828125 C 9.585938 -15.828125 8.300781 -15.304688 7.34375 -14.265625 C 6.382812 -13.222656 5.90625 -11.8125 5.90625 -10.03125 C 5.90625 -8.269531 6.382812 -6.863281 7.34375 -5.8125 C 8.300781 -4.757812 9.585938 -4.234375 11.203125 -4.234375 Z M 11.203125 -4.234375 "/></g></g></g><g fill="#393be5" fill-opacity="1"><g transform="translate(186.361142, 52.105208)"><g><path d="M 11.9375 0 L 7.78125 -7.53125 L 6.625 -7.53125 L 6.625 0 L 1.765625 0 L 1.765625 -19.953125 L 9.921875 -19.953125 C 11.492188 -19.953125 12.832031 -19.675781 13.9375 -19.125 C 15.050781 -18.570312 15.878906 -17.816406 16.421875 -16.859375 C 16.972656 -15.910156 17.25 -14.847656 17.25 -13.671875 C 17.25 -12.347656 16.875 -11.164062 16.125 -10.125 C 15.375 -9.082031 14.269531 -8.34375 12.8125 -7.90625 L 17.421875 0 Z M 6.625 -10.96875 L 9.640625 -10.96875 C 10.523438 -10.96875 11.191406 -11.1875 11.640625 -11.625 C 12.085938 -12.0625 12.3125 -12.675781 12.3125 -13.46875 C 12.3125 -14.226562 12.085938 -14.828125 11.640625 -15.265625 C 11.191406 -15.703125 10.523438 -15.921875 9.640625 -15.921875 L 6.625 -15.921875 Z M 6.625 -10.96875 "/></g></g></g><g fill="#393be5" fill-opacity="1"><g transform="translate(204.891641, 52.105208)"><g><path d="M 16.109375 -19.953125 L 16.109375 -16.0625 L 10.828125 -16.0625 L 10.828125 0 L 5.96875 0 L 5.96875 -16.0625 L 0.6875 -16.0625 L 0.6875 -19.953125 Z M 16.109375 -19.953125 "/></g></g></g><g fill="#393be5" fill-opacity="1"><g transform="translate(221.688481, 52.105208)"><g><path d="M 6.625 -16.0625 L 6.625 -12.015625 L 13.125 -12.015625 L 13.125 -8.265625 L 6.625 -8.265625 L 6.625 -3.890625 L 13.984375 -3.890625 L 13.984375 0 L 1.765625 0 L 1.765625 -19.953125 L 13.984375 -19.953125 L 13.984375 -16.0625 Z M 6.625 -16.0625 "/></g></g></g><g fill="#393be5" fill-opacity="1"><g transform="translate(237.064266, 52.105208)"><g><path d="M 19.609375 0 L 14.75 0 L 6.625 -12.3125 L 6.625 0 L 1.765625 0 L 1.765625 -19.953125 L 6.625 -19.953125 L 14.75 -7.59375 L 14.75 -19.953125 L 19.609375 -19.953125 Z M 19.609375 0 "/></g></g></g><g fill="#393be5" fill-opacity="1"><g transform="translate(258.436876, 52.105208)"><g><path d="M 6.625 -16.0625 L 6.625 -12.015625 L 13.125 -12.015625 L 13.125 -8.265625 L 6.625 -8.265625 L 6.625 -3.890625 L 13.984375 -3.890625 L 13.984375 0 L 1.765625 0 L 1.765625 -19.953125 L 13.984375 -19.953125 L 13.984375 -16.0625 Z M 6.625 -16.0625 "/></g></g></g><g fill="#393be5" fill-opacity="1"><g transform="translate(273.812661, 52.105208)"><g><path d="M 11.9375 0 L 7.78125 -7.53125 L 6.625 -7.53125 L 6.625 0 L 1.765625 0 L 1.765625 -19.953125 L 9.921875 -19.953125 C 11.492188 -19.953125 12.832031 -19.675781 13.9375 -19.125 C 15.050781 -18.570312 15.878906 -17.816406 16.421875 -16.859375 C 16.972656 -15.910156 17.25 -14.847656 17.25 -13.671875 C 17.25 -12.347656 16.875 -11.164062 16.125 -10.125 C 15.375 -9.082031 14.269531 -8.34375 12.8125 -7.90625 L 17.421875 0 Z M 6.625 -10.96875 L 9.640625 -10.96875 C 10.523438 -10.96875 11.191406 -11.1875 11.640625 -11.625 C 12.085938 -12.0625 12.3125 -12.675781 12.3125 -13.46875 C 12.3125 -14.226562 12.085938 -14.828125 11.640625 -15.265625 C 11.191406 -15.703125 10.523438 -15.921875 9.640625 -15.921875 L 6.625 -15.921875 Z M 6.625 -10.96875 "/></g></g></g></svg>